<?xml version="1.0" standalone="no"?>
<!DOCTYPE svg PUBLIC "-//W3C//DTD SVG 20010904//EN"
 "http://www.w3.org/TR/2001/REC-SVG-20010904/DTD/svg10.dtd">
<svg version="1.0" xmlns="http://www.w3.org/2000/svg"
 width="62.000000pt" height="50.000000pt" viewBox="0 0 62.000000 50.000000"
 preserveAspectRatio="xMidYMid meet">

<defs>
    <linearGradient id="grad1" x1="0%" y1="0%" x2="100%" y2="0%">
        <stop offset="0%" style="stop-color:rgb(0,150,255);stop-opacity:1" />
        <stop offset="100%" style="stop-color:rgb(255,100,200);stop-opacity:1" />
    </linearGradient>
</defs>

<g transform="translate(0.000000,50.000000) scale(0.100000,-0.100000)"
fill="url(#grad1)" stroke="none">
<path d="M80 465 c0 -3 14 -30 30 -59 31 -55 56 -74 73 -57 11 11 37 3 37 -11
0 -6 -9 -8 -19 -5 -10 2 -25 1 -32 -4 -10 -6 -6 -9 13 -9 58 0 59 7 16 81 -38
67 -41 69 -79 69 -21 0 -39 -2 -39 -5z"/>
<path d="M465 445 c-8 -14 -22 -37 -31 -52 -15 -24 -15 -27 0 -38 23 -17 20
-28 -6 -22 -19 5 -29 -3 -60 -50 -35 -52 -38 -62 -38 -126 0 -39 2 -68 4 -66
2 2 33 52 69 111 l66 107 -27 4 c-23 3 -22 4 8 6 27 1 31 4 20 11 -13 9 -13
10 0 10 16 0 18 3 64 83 l28 47 -41 0 c-33 0 -44 -5 -56 -25z"/>
<path d="M70 383 c0 -55 5 -61 33 -40 15 11 14 15 -8 52 l-25 40 0 -52z"/>
<path d="M511 345 c-36 -63 -42 -83 -40 -123 1 -26 7 -53 12 -59 6 -9 6 -13
-2 -13 -7 0 -11 -21 -11 -55 l0 -55 44 0 44 0 2 190 c0 105 -1 190 -3 190 -2
0 -22 -34 -46 -75z"/>
<path d="M83 313 c-7 -2 -13 -8 -13 -13 0 -10 38 -1 46 11 6 10 -13 11 -33 2z"/>
<path d="M212 299 l-34 -10 18 -27 c10 -15 36 -58 58 -97 l41 -70 3 69 c2 44
-1 72 -8 76 -7 4 -12 11 -12 16 0 5 -4 8 -10 6 -5 -1 -7 2 -4 7 7 11 -3 41
-13 40 -3 0 -21 -5 -39 -10z"/>
<path d="M120 284 c0 -7 -11 -9 -25 -6 l-25 4 0 -121 0 -121 45 0 45 0 0 119
c0 69 -4 122 -10 126 -5 3 -10 0 -10 -7 0 -9 -3 -9 -10 2 -5 8 -10 10 -10 4z
m14 -32 c3 -5 -1 -9 -9 -9 -8 0 -15 4 -15 9 0 4 4 8 9 8 6 0 12 -4 15 -8z"/>
</g>
</svg>
