<?xml version="1.0" standalone="no"?>
<!DOCTYPE svg PUBLIC "-//W3C//DTD SVG 20010904//EN"
 "http://www.w3.org/TR/2001/REC-SVG-20010904/DTD/svg10.dtd">
<svg version="1.0" xmlns="http://www.w3.org/2000/svg"
 width="334.000000pt" height="76.000000pt" viewBox="0 0 334.000000 76.000000"
 preserveAspectRatio="xMidYMid meet">

<defs>
    <linearGradient id="grad1" x1="0%" y1="0%" x2="100%" y2="0%">
        <stop offset="0%" style="stop-color:rgb(0,150,255);stop-opacity:1" />
        <stop offset="100%" style="stop-color:rgb(255,100,200);stop-opacity:1" />
    </linearGradient>
</defs>

<g transform="translate(0.000000,76.000000) scale(0.100000,-0.100000)"
fill="url(#grad1)" stroke="none">
<path d="M465 716 c-115 -29 -208 -90 -246 -160 -27 -53 -21 -86 23 -119 24
-18 32 -19 67 -9 43 13 149 89 168 120 7 12 -12 4 -55 -24 -114 -75 -184 -92
-190 -46 -5 31 105 138 186 180 70 37 155 52 190 33 46 -24 27 -66 -116 -253
-103 -136 -128 -182 -113 -214 14 -33 25 -30 39 9 27 75 182 254 304 352 85
67 112 81 84 43 -61 -84 -156 -233 -180 -285 -31 -65 -30 -85 3 -103 18 -9 21
-8 21 10 0 35 49 101 159 213 96 98 198 187 214 187 4 0 -23 -37 -60 -82 -82
-102 -130 -177 -160 -248 -31 -75 -29 -96 11 -136 45 -45 96 -47 152 -6 38 28
72 62 61 62 -3 0 -28 -14 -55 -31 -60 -37 -122 -48 -141 -25 -10 12 -10 23 -1
53 31 94 119 237 203 329 53 58 55 72 14 98 -29 18 -84 -21 -211 -148 -84 -84
-113 -107 -96 -80 34 57 90 135 118 166 28 30 24 54 -10 67 -29 11 -48 1 -118
-58 -30 -25 -64 -53 -75 -61 -19 -15 -19 -15 -2 12 36 56 9 126 -59 154 -40
17 -62 16 -129 0z"/>
<path d="M1400 664 c0 -31 -31 -62 -69 -68 -43 -7 -66 -28 -57 -52 6 -15 8
-15 19 -2 12 15 47 32 47 23 0 -3 -22 -36 -49 -73 -53 -73 -101 -112 -198
-161 -71 -35 -93 -39 -93 -13 1 27 25 52 51 52 32 0 139 52 163 79 18 20 18
22 1 41 -10 11 -26 22 -36 25 -44 14 -180 -79 -215 -147 -20 -38 -11 -61 29
-83 32 -17 34 -17 78 5 24 12 63 38 86 56 23 19 44 34 47 34 3 0 -4 -16 -16
-36 l-22 -37 23 -18 c31 -25 35 -25 81 17 25 23 40 31 40 22 0 -8 11 -25 24
-37 22 -21 26 -22 52 -8 34 18 117 88 111 93 -2 3 -31 -14 -64 -36 -33 -22
-66 -40 -72 -40 -32 0 73 121 147 170 53 35 82 39 82 10 0 -11 -5 -20 -10 -20
-12 0 -71 -64 -71 -77 0 -4 -9 -22 -20 -40 -20 -32 -20 -32 0 -52 12 -12 24
-21 29 -21 22 0 134 98 154 135 6 10 -20 -9 -58 -43 -38 -34 -72 -62 -76 -62
-16 0 -7 20 31 67 29 37 36 54 30 66 -7 11 -5 19 7 25 26 15 1 50 -42 58 -51
9 -102 -17 -198 -105 -88 -80 -136 -117 -136 -104 0 12 51 92 122 191 l59 82
97 1 c104 1 96 11 -18 24 -43 5 -59 10 -51 18 6 6 7 16 1 27 -13 24 -40 34
-40 14z m-225 -204 c-32 -33 -106 -80 -126 -80 -18 0 28 46 80 81 60 39 84 39
46 -1z"/>
<path d="M2337 646 c-32 -69 -137 -206 -157 -206 -15 0 -20 7 -20 24 0 48 -63
69 -125 42 -25 -11 -34 -10 -52 2 -18 11 -23 12 -23 1 0 -20 -43 -79 -58 -79
-7 0 -11 -4 -7 -10 3 -5 -10 -31 -28 -57 -45 -63 -112 -179 -132 -225 -14 -36
-14 -38 7 -57 l21 -21 16 48 c9 26 36 79 59 119 l42 71 31 -15 c25 -13 38 -13
68 -4 51 15 116 63 149 111 15 22 35 39 45 40 14 0 11 -9 -18 -52 -41 -61 -42
-69 -15 -93 17 -15 20 -16 20 -3 0 9 45 59 100 112 100 96 142 124 98 65 -59
-79 -88 -125 -88 -140 0 -16 30 -49 44 -49 4 0 32 23 62 52 49 46 55 49 49 26
-7 -27 19 -62 56 -73 22 -7 90 26 146 71 23 19 44 34 47 34 3 0 -4 -16 -16
-35 -20 -34 -20 -36 -3 -55 18 -20 18 -20 33 10 8 16 33 51 56 77 22 26 40 49
40 52 -1 3 3 16 9 28 7 16 6 27 -3 38 -18 22 -23 19 -45 -21 -23 -43 -95 -99
-182 -143 -71 -35 -93 -39 -93 -13 1 27 25 52 51 52 32 0 139 52 163 79 18 20
18 22 1 41 -45 50 -98 29 -250 -98 -60 -50 -110 -90 -113 -88 -7 7 26 60 72
115 45 55 48 74 14 92 -24 13 -44 1 -141 -89 -49 -46 -64 -56 -46 -32 93 127
169 239 169 247 0 6 -8 17 -18 26 -17 16 -19 15 -35 -17z m-217 -158 c-1 -37
-21 -52 -101 -79 l-77 -24 22 28 c29 36 115 97 138 97 12 0 18 -7 18 -22z
m525 -28 c-32 -33 -106 -80 -126 -80 -18 0 28 46 80 81 60 39 84 39 46 -1z
m-575 -59 c0 -17 -122 -101 -146 -101 -13 0 -24 4 -24 8 0 15 43 49 95 75 53
28 75 33 75 18z"/>
<path d="M1762 494 c-29 -14 -57 -35 -64 -47 -9 -18 -7 -24 16 -42 l27 -22
-44 -17 c-24 -9 -54 -28 -67 -41 -23 -24 -23 -25 -5 -45 32 -35 128 -18 183
33 27 25 27 31 1 56 l-21 20 42 12 c24 7 39 14 34 16 -6 2 -30 -3 -56 -10 -30
-10 -51 -11 -62 -5 -16 9 -16 11 1 30 24 27 90 60 111 56 14 -3 14 -6 -6 -26
-27 -27 -13 -29 19 -2 l24 20 -24 20 c-30 26 -47 25 -109 -6z m18 -129 c0 -10
-29 -30 -72 -50 -108 -52 -104 -31 7 35 57 34 65 36 65 15z"/>
<path d="M2842 480 c-67 -52 -75 -69 -18 -35 34 20 55 26 76 21 31 -6 37 4 24
38 -9 25 -28 19 -82 -24z"/>
<path d="M3023 501 c-50 -23 -129 -93 -149 -133 -20 -38 -11 -61 29 -83 32
-17 34 -17 78 5 43 22 179 125 179 136 0 3 -21 -10 -47 -29 -55 -40 -165 -97
-188 -97 -8 0 -15 8 -15 18 1 27 25 52 51 52 32 0 139 52 164 80 l20 22 -28
24 c-34 29 -40 29 -94 5z m62 -41 c-32 -33 -106 -80 -126 -80 -18 0 28 46 80
81 60 39 84 39 46 -1z"/>
</g>
</svg>
