<?xml version="1.0" standalone="no"?>
<!DOCTYPE svg PUBLIC "-//W3C//DTD SVG 20010904//EN" "http://www.w3.org/TR/2001/REC-SVG-20010904/DTD/svg10.dtd">
<svg version="1.0" xmlns="http://www.w3.org/2000/svg"
    width="240.000000pt" height="240.000000pt" viewBox="0 0 240.000000 240.000000"
    preserveAspectRatio="xMidYMid meet">

    <g transform="translate(0.000000,240.000000) scale(0.100000,-0.100000)"
        fill="#000000" stroke="none">
        <path
            d="M0 1200 l0 -1200 1200 0 1200 0 0 1200 0 1200 -1200 0 -1200 0 0
-1200z m1575 395 l-247 -286 28 -42 c15 -23 134 -198 266 -389 131 -191 238
-349 238 -353 0 -3 -88 -4 -196 -3 l-197 3 -178 260 c-98 143 -181 260 -183
260 -2 0 -106 -118 -231 -262 l-226 -263 -54 0 c-30 0 -55 2 -55 5 0 2 112
134 248 293 137 159 252 294 256 300 4 8 -91 156 -241 375 -137 199 -252 368
-257 375 -6 9 35 12 191 12 l198 -1 165 -240 c90 -132 167 -242 171 -245 5 -2
103 106 219 240 l211 245 57 3 c31 2 58 2 60 2 2 -1 -108 -131 -243 -289z" />
        <path
            d="M700 1794 c0 -3 24 -41 53 -83 29 -42 214 -307 411 -589 l358 -512
89 0 c49 0 89 1 89 3 0 1 -186 268 -413 592 l-412 590 -88 3 c-48 1 -87 0 -87
-4z" />
    </g>
</svg>